# xmcd
#
# Track frame offsets: 
#        150
#        4303
#        12719
#        27373
#        38117
#        49748
#        56046
#        62743
#        67400
#        75789
#        83874
#        90901
#        103474
#        110321
#        119859
#        130462
#        139477
#        146061
#        162111
#        166379
#        175686
#        186230
#        190732
#        202832
#        209494
#        216590
#
# Disc length: 3088 seconds
#
# Revision: 0
# Processed by: cddbd v1.5.1PL0 Copyright (c) Steve Scherf et al.
# Submitted via: ExactAudioCopy v0.95a5
#
DISCID=8a0c0e1a
DTITLE=Various Artist - 3B Unplugged Vol 1
DYEAR=2004
DGENRE=Bluegrass
TTITLE0=Amzing Grace
TTITLE1=Liza Jane
TTITLE2=Beans, Bacon and Gravy
TTITLE3=Rueben
TTITLE4=Gypsy Dance
TTITLE5=Lonesome Road
TTITLE6=Oh Susanna
TTITLE7=Cumberland Gap
TTITLE8=Banjo In The Holler
TTITLE9=L'il Darlin' Pal Of Mine
TTITLE10=Home Sweet Home
TTITLE11=Cabin In Caroline
TTITLE12=Mountain Dew
TTITLE13=Blackberry Blossom
TTITLE14=Love Oh Love
TTITLE15=Jesse James
TTITLE16=The Highland Fling
TTITLE17=Home Sweet Home
TTITLE18=Rocky Top
TTITLE19=I'll Fly Away
TTITLE20=Jesse James
TTITLE21=Bear Creek Hop
TTITLE22=Fox Hill Breakdown
TTITLE23=Big Rock Candy Mountain
TTITLE24=Lady Of Spain
TTITLE25=Sing Anything
EXTD=
EXTT0=
EXTT1=
EXTT2=
EXTT3=
EXTT4=
EXTT5=
EXTT6=
EXTT7=
EXTT8=
EXTT9=
EXTT10=
EXTT11=
EXTT12=
EXTT13=
EXTT14=
EXTT15=
EXTT16=
EXTT17=
EXTT18=
EXTT19=
EXTT20=
EXTT21=
EXTT22=
EXTT23=
EXTT24=
EXTT25=
PLAYORDER=
